{
  "accessors": [
    {
      "bufferView": 2,
      "componentType": 5126,
      "count": 256,
      "max": [
        2.886101007461548,
        2.207279920578003,
        0.13174399733543396
      ],
      "min": [
        2.4408791065216064,
        -1.806399941444397,
        0.13174399733543396
      ],
      "type": "VEC3"
    },
    {
      "bufferView": 2,
      "byteOffset": 3072,
      "componentType": 5126,
      "count": 256,
      "max": [
        0.0,
        0.0,
        1.0
      ],
      "min": [
        0.0,
        0.0,
        0.9999999403953552
      ],
      "type": "VEC3"
    },
    {
      "bufferView": 1,
      "componentType": 5126,
      "count": 256,
      "max": [
        0.7019180059432983,
        0.6594849824905396
      ],
      "min": [
        0.4011020064353943,
        0.2702980041503906
      ],
      "type": "VEC2"
    },
    {
      "bufferView": 0,
      "componentType": 5125,
      "count": 678,
      "type": "SCALAR"
    },
    {
      "bufferView": 2,
      "byteOffset": 6144,
      "componentType": 5126,
      "count": 1728,
      "max": [
        2.886101007461548,
        3.8214569091796875,
        0.47811201214790344
      ],
      "min": [
        -3.033313035964966,
        -4.551052093505859,
        0.13174399733543396
      ],
      "type": "VEC3"
    },
    {
      "bufferView": 2,
      "byteOffset": 26880,
      "componentType": 5126,
      "count": 1728,
      "max": [
        0.9993351697921753,
        0.9993157386779785,
        0.9988315105438232
      ],
      "min": [
        -0.9995205998420715,
        -0.9973770380020142,
        -0.9103899598121643
      ],
      "type": "VEC3"
    },
    {
      "bufferView": 1,
      "byteOffset": 2048,
      "componentType": 5126,
      "count": 1728,
      "max": [
        0.9967269897460938,
        0.99447101354599
      ],
      "min": [
        0.004408000037074089,
        0.009379000402987003
      ],
      "type": "VEC2"
    },
    {
      "bufferView": 0,
      "byteOffset": 2712,
      "componentType": 5125,
      "count": 4977,
      "type": "SCALAR"
    },
    {
      "bufferView": 2,
      "byteOffset": 47616,
      "componentType": 5126,
      "count": 38031,
      "max": [
        2.8408610820770264,
        3.811568021774292,
        2.516352891921997
      ],
      "min": [
        -3.01383900642395,
        -4.517550945281982,
        0.19695299863815308
      ],
      "type": "VEC3"
    },
    {
      "bufferView": 2,
      "byteOffset": 503988,
      "componentType": 5126,
      "count": 38031,
      "max": [
        0.9999899864196777,
        0.99996018409729,
        0.9999997615814209
      ],
      "min": [
        -0.9999991655349731,
        -0.9998927116394043,
        -0.9999604225158691
      ],
      "type": "VEC3"
    },
    {
      "bufferView": 3,
      "componentType": 5126,
      "count": 38031,
      "max": [
        0.9999964237213135,
        0.9999793767929077,
        0.9999802112579346,
        1.0
      ],
      "min": [
        -0.9999933242797852,
        -0.9998952150344849,
        -0.9999932050704956,
        -1.0
      ],
      "type": "VEC4"
    },
    {
      "bufferView": 1,
      "byteOffset": 15872,
      "componentType": 5126,
      "count": 38031,
      "max": [
        0.9966740012168884,
        0.996749997138977
      ],
      "min": [
        0.002311999909579754,
        0.002311999909579754
      ],
      "type": "VEC2"
    },
    {
      "bufferView": 0,
      "byteOffset": 22620,
      "componentType": 5125,
      "count": 113859,
      "type": "SCALAR"
    }
  ],
  "asset": {
    "extras": {
      "author": "Lassi Kaukonen (https://sketchfab.com/thesidekick)",
      "license": "CC-BY-4.0 (http://creativecommons.org/licenses/by/4.0/)",
      "source": "https://sketchfab.com/3d-models/wooden-cart-c69e68aacfe3456f83caa1a60194010c",
      "title": "Wooden cart"
    },
    "generator": "Sketchfab-15.22.0",
    "version": "2.0"
  },
  "bufferViews": [
    {
      "buffer": 0,
      "byteLength": 478056,
      "name": "floatBufferViews",
      "target": 34963
    },
    {
      "buffer": 0,
      "byteLength": 320120,
      "byteOffset": 478056,
      "byteStride": 8,
      "name": "floatBufferViews",
      "target": 34962
    },
    {
      "buffer": 0,
      "byteLength": 960360,
      "byteOffset": 798176,
      "byteStride": 12,
      "name": "floatBufferViews",
      "target": 34962
    },
    {
      "buffer": 0,
      "byteLength": 608496,
      "byteOffset": 1758536,
      "byteStride": 16,
      "name": "floatBufferViews",
      "target": 34962
    }
  ],
  "buffers": [
    {
      "byteLength": 2367032,
      "uri": "scene.bin"
    }
  ],
  "extensionsUsed": [
    "KHR_materials_specular"
  ],
  "images": [
    {
      "uri": "textures/Wooden_cart_baseColor.jpeg"
    },
    {
      "uri": "textures/Wooden_cart_metallicRoughness.png"
    },
    {
      "uri": "textures/Wooden_cart_normal.png"
    }
  ],
  "materials": [
    {
      "doubleSided": true,
      "name": "Base",
      "pbrMetallicRoughness": {
        "baseColorFactor": [
          0.03968,
          0.03968,
          0.03968,
          1.0
        ],
        "metallicFactor": 0.0,
        "roughnessFactor": 0.942594253544179
      }
    },
    {
      "doubleSided": true,
      "extensions": {
        "KHR_materials_specular": {
          "specularColorFactor": [
            1.0,
            1.0,
            1.0
          ],
          "specularFactor": 0.06552400921602808
        }
      },
      "name": "Wooden_cart",
      "normalTexture": {
        "index": 2
      },
      "occlusionTexture": {
        "index": 1
      },
      "pbrMetallicRoughness": {
        "baseColorTexture": {
          "index": 0
        },
        "metallicFactor": 0.0,
        "metallicRoughnessTexture": {
          "index": 1
        }
      }
    }
  ],
  "meshes": [
    {
      "name": "Object_0",
      "primitives": [
        {
          "attributes": {
            "NORMAL": 1,
            "POSITION": 0,
            "TEXCOORD_0": 2
          },
          "indices": 3,
          "material": 0,
          "mode": 4
        }
      ]
    },
    {
      "name": "Object_1",
      "primitives": [
        {
          "attributes": {
            "NORMAL": 5,
            "POSITION": 4,
            "TEXCOORD_0": 6
          },
          "indices": 7,
          "material": 0,
          "mode": 4
        }
      ]
    },
    {
      "name": "Object_2",
      "primitives": [
        {
          "attributes": {
            "NORMAL": 9,
            "POSITION": 8,
            "TANGENT": 10,
            "TEXCOORD_0": 11
          },
          "indices": 12,
          "material": 1,
          "mode": 4
        }
      ]
    }
  ],
  "nodes": [
    {
      "children": [
        1
      ],
      "matrix": [
        1.0,
        0.0,
        0.0,
        0.0,
        0.0,
        2.220446049250313e-16,
        -1.0,
        0.0,
        0.0,
        1.0,
        2.220446049250313e-16,
        0.0,
        0.0,
        0.0,
        0.0,
        1.0
      ],
      "name": "Sketchfab_model"
    },
    {
      "children": [
        2,
        3,
        4
      ],
      "name": "Wooden_cart_SF.obj.cleaner.materialmerger.gles"
    },
    {
      "mesh": 0,
      "name": "Object_2"
    },
    {
      "mesh": 1,
      "name": "Object_3"
    },
    {
      "mesh": 2,
      "name": "Object_4"
    }
  ],
  "samplers": [
    {
      "magFilter": 9729,
      "minFilter": 9987,
      "wrapS": 10497,
      "wrapT": 10497
    }
  ],
  "scene": 0,
  "scenes": [
    {
      "name": "Sketchfab_Scene",
      "nodes": [
        0
      ]
    }
  ],
  "textures": [
    {
      "sampler": 0,
      "source": 0
    },
    {
      "sampler": 0,
      "source": 1
    },
    {
      "sampler": 0,
      "source": 2
    }
  ]
}
